<svg xmlns="http://www.w3.org/2000/svg" xmlns:xlink="http://www.w3.org/1999/xlink" width="56" height="92" fill="none" viewBox="0 0 56 92">
  <path fill="url(#pattern0)" d="M0 0h56v56H0z"/>
  <path fill="#000" d="M12.875 71.65H10V69.7c.783 0 1.408-.067 1.875-.2.483-.133.867-.35 1.15-.65.283-.317.533-.767.75-1.35h1.85V85h-2.75V71.65zm10.035 13.6c-1.334 0-2.35-.375-3.05-1.125-.7-.767-1.05-1.858-1.05-3.275v-.325h2.6v.5c0 1.15.475 1.725 1.425 1.725.516 0 .9-.158 1.15-.475.25-.317.375-.875.375-1.675v-3.35h-.05c-.484 1.017-1.317 1.525-2.5 1.525-1 0-1.759-.342-2.275-1.025-.517-.683-.775-1.675-.775-2.975V71.65c0-1.4.358-2.483 1.075-3.25.716-.767 1.75-1.15 3.1-1.15s2.383.383 3.1 1.15c.716.767 1.075 1.85 1.075 3.25v9.05c0 3.033-1.4 4.55-4.2 4.55zm.025-8.975c.95 0 1.425-.575 1.425-1.725v-3.1c0-1.133-.475-1.7-1.425-1.7-.95 0-1.425.567-1.425 1.7v3.1c0 1.15.475 1.725 1.425 1.725zm9.985 8.975c-1.334 0-2.35-.375-3.05-1.125-.7-.767-1.05-1.858-1.05-3.275v-.325h2.6v.5c0 1.15.474 1.725 1.424 1.725.517 0 .9-.158 1.15-.475.25-.317.376-.875.376-1.675v-3.35h-.05c-.484 1.017-1.317 1.525-2.5 1.525-1 0-1.759-.342-2.276-1.025-.516-.683-.774-1.675-.774-2.975V71.65c0-1.4.358-2.483 1.075-3.25.716-.767 1.75-1.15 3.1-1.15s2.383.383 3.1 1.15c.716.767 1.075 1.85 1.075 3.25v9.05c0 3.033-1.4 4.55-4.2 4.55zm.024-8.975c.95 0 1.425-.575 1.425-1.725v-3.1c0-1.133-.474-1.7-1.425-1.7-.95 0-1.425.567-1.425 1.7v3.1c0 1.15.476 1.725 1.425 1.725zM43.03 85.25c-1.383 0-2.45-.367-3.2-1.1-.733-.75-1.1-1.825-1.1-3.225v-1.55c0-.867.142-1.592.425-2.175.284-.6.742-1.067 1.375-1.4v-.05c-.583-.317-1.016-.75-1.3-1.3-.266-.567-.4-1.283-.4-2.15v-.725c0-1.4.359-2.467 1.075-3.2.734-.75 1.775-1.125 3.125-1.125s2.384.375 3.1 1.125c.734.733 1.1 1.8 1.1 3.2v.725c0 1.667-.566 2.817-1.7 3.45v.05c.634.333 1.092.8 1.375 1.4.284.583.425 1.308.425 2.175v1.55c0 1.4-.375 2.475-1.125 3.225-.733.733-1.791 1.1-3.175 1.1zm0-10.625c.967 0 1.45-.583 1.45-1.75V71.5c0-1.167-.483-1.75-1.45-1.75-.966 0-1.45.583-1.45 1.75v1.375c0 1.167.484 1.75 1.45 1.75zm0 8.125c1.034 0 1.55-.658 1.55-1.975V79.1c0-1.317-.516-1.975-1.55-1.975-1.033 0-1.55.658-1.55 1.975v1.675c0 1.317.517 1.975 1.55 1.975z"/>
  <defs>
    <pattern id="pattern0" width="1" height="1" patternContentUnits="objectBoundingBox">
      <use transform="scale(.00195)" xlink:href="#image0_241_32"/>
    </pattern>
  </defs>
</svg>
